<mxfile host="app.diagrams.net" agent="Mozilla/5.0 (Windows NT 10.0; Win64; x64) AppleWebKit/537.36 (KHTML, like Gecko) Chrome/132.0.0.0 Safari/537.36" version="26.0.8">
  <diagram name="Page-1" id="90a13364-a465-7bf4-72fc-28e22215d7a0">
    <mxGraphModel dx="2947.5" dy="666" grid="1" gridSize="10" guides="1" tooltips="1" connect="1" arrows="1" fold="1" page="1" pageScale="1.5" pageWidth="1169" pageHeight="827" background="#ffffff" math="0" shadow="0">
      <root>
        <mxCell id="0" style=";html=1;" />
        <mxCell id="1" style=";html=1;" parent="0" />
        <mxCell id="aC57QmPyYTqG6Asludqg-9" value="" style="rounded=0;whiteSpace=wrap;html=1;fontSize=16;" parent="1" vertex="1">
          <mxGeometry x="-20" y="350" width="740" height="710" as="geometry" />
        </mxCell>
        <mxCell id="zSoxXOAhGFOt2usmLHU0-1" value="" style="rounded=0;whiteSpace=wrap;html=1;fillColor=none;dashed=1;strokeWidth=2;" parent="1" vertex="1">
          <mxGeometry x="2.5" y="370" width="700" height="480" as="geometry" />
        </mxCell>
        <mxCell id="zSoxXOAhGFOt2usmLHU0-2" value="" style="rounded=0;whiteSpace=wrap;html=1;fillColor=none;dashed=1;strokeWidth=2;" parent="1" vertex="1">
          <mxGeometry y="850" width="700" height="190" as="geometry" />
        </mxCell>
        <mxCell id="S8yp5X4-lJhxRksTFqpk-2" value="" style="rounded=1;whiteSpace=wrap;html=1;fillColor=none;dashed=1;" parent="1" vertex="1">
          <mxGeometry x="275" y="860" width="155" height="80" as="geometry" />
        </mxCell>
        <mxCell id="9j5Bc3N9rgv02oG_bQQu-1" value="&lt;b&gt;&lt;font style=&quot;font-size: 20px&quot;&gt;MQTT Server&lt;/font&gt;&lt;/b&gt;" style="ellipse;shape=cloud;whiteSpace=wrap;html=1;" parent="1" vertex="1">
          <mxGeometry x="87.5" y="80" width="523" height="170" as="geometry" />
        </mxCell>
        <mxCell id="J8ns3n-xOa6iXa_PQh_Z-5" style="edgeStyle=orthogonalEdgeStyle;rounded=0;orthogonalLoop=1;jettySize=auto;html=1;exitX=0.5;exitY=0;exitDx=0;exitDy=0;entryX=0;entryY=0.5;entryDx=0;entryDy=0;" parent="1" source="9j5Bc3N9rgv02oG_bQQu-11" target="9j5Bc3N9rgv02oG_bQQu-30" edge="1">
          <mxGeometry relative="1" as="geometry" />
        </mxCell>
        <mxCell id="9j5Bc3N9rgv02oG_bQQu-11" value="&lt;div&gt;&lt;div&gt;&lt;span style=&quot;background-color: rgb(255, 255, 51);&quot;&gt;3.3 Volt&lt;/span&gt;&lt;/div&gt;&lt;/div&gt;&lt;div&gt;&lt;span style=&quot;background-color: rgb(255, 255, 51);&quot;&gt;voltage regulator&lt;/span&gt;&lt;/div&gt;" style="rounded=0;whiteSpace=wrap;html=1;" parent="1" vertex="1">
          <mxGeometry x="130" y="770" width="120" height="60" as="geometry" />
        </mxCell>
        <mxCell id="9j5Bc3N9rgv02oG_bQQu-24" value="dial with 3 settings&lt;div&gt;(for speed control)&lt;/div&gt;" style="rounded=0;whiteSpace=wrap;html=1;" parent="1" vertex="1">
          <mxGeometry x="10" y="530" width="120" height="60" as="geometry" />
        </mxCell>
        <mxCell id="9j5Bc3N9rgv02oG_bQQu-47" value="" style="group;strokeWidth=1;" parent="1" vertex="1" connectable="0">
          <mxGeometry x="240" y="570" width="250" height="190" as="geometry" />
        </mxCell>
        <mxCell id="9j5Bc3N9rgv02oG_bQQu-6" value="&lt;div&gt;Microchip&lt;/div&gt;&lt;div&gt;&lt;span style=&quot;font-size: 10pt ; font-family: &amp;#34;arial&amp;#34; ; font-style: normal&quot;&gt;PIC18F47Q10-I/P&lt;/span&gt;&lt;/div&gt;" style="rounded=0;whiteSpace=wrap;html=1;strokeWidth=2;fillColor=#E6E6E6;" parent="9j5Bc3N9rgv02oG_bQQu-47" vertex="1">
          <mxGeometry x="-30" width="280" height="170" as="geometry" />
        </mxCell>
        <mxCell id="9j5Bc3N9rgv02oG_bQQu-29" value="&lt;div&gt;DI&lt;/div&gt;&lt;span style=&quot;background-color: rgb(255 , 255 , 51)&quot;&gt;RXY&lt;/span&gt;" style="rounded=0;whiteSpace=wrap;html=1;" parent="9j5Bc3N9rgv02oG_bQQu-47" vertex="1">
          <mxGeometry x="-30" y="10" width="80" height="40" as="geometry" />
        </mxCell>
        <mxCell id="9j5Bc3N9rgv02oG_bQQu-31" value="&lt;div&gt;DO&lt;/div&gt;&lt;span style=&quot;background-color: rgb(255 , 255 , 51)&quot;&gt;RXY&lt;/span&gt;" style="rounded=0;whiteSpace=wrap;html=1;" parent="9j5Bc3N9rgv02oG_bQQu-47" vertex="1">
          <mxGeometry x="170" y="60" width="80" height="40" as="geometry" />
        </mxCell>
        <mxCell id="9j5Bc3N9rgv02oG_bQQu-33" value="&lt;div&gt;PWM&lt;br&gt;&lt;/div&gt;&lt;div&gt;&lt;span style=&quot;background-color: rgb(255 , 255 , 51)&quot;&gt;RXY-Z&lt;/span&gt;&lt;/div&gt;" style="rounded=0;whiteSpace=wrap;html=1;" parent="9j5Bc3N9rgv02oG_bQQu-47" vertex="1">
          <mxGeometry x="170" y="100" width="80" height="40" as="geometry" />
        </mxCell>
        <mxCell id="9j5Bc3N9rgv02oG_bQQu-36" value="&lt;div&gt;DAC&lt;/div&gt;&lt;div&gt;&lt;span style=&quot;background-color: rgb(255 , 255 , 51)&quot;&gt;RXY&lt;/span&gt;&lt;/div&gt;" style="rounded=0;whiteSpace=wrap;html=1;" parent="9j5Bc3N9rgv02oG_bQQu-47" vertex="1">
          <mxGeometry x="82.5" y="130" width="60" height="40" as="geometry" />
        </mxCell>
        <mxCell id="9j5Bc3N9rgv02oG_bQQu-40" value="&lt;div&gt;UART&lt;/div&gt;&lt;span style=&quot;background-color: rgb(255 , 255 , 51)&quot;&gt;RXY-Z&lt;/span&gt;" style="rounded=0;whiteSpace=wrap;html=1;" parent="9j5Bc3N9rgv02oG_bQQu-47" vertex="1">
          <mxGeometry x="65.06" width="80" height="30" as="geometry" />
        </mxCell>
        <mxCell id="aC57QmPyYTqG6Asludqg-1" value="&lt;div&gt;ICSP&lt;/div&gt;&lt;span style=&quot;background-color: rgb(255 , 255 , 51)&quot;&gt;RXY-Z&lt;/span&gt;" style="rounded=0;whiteSpace=wrap;html=1;" parent="9j5Bc3N9rgv02oG_bQQu-47" vertex="1">
          <mxGeometry x="170" y="20" width="80" height="40" as="geometry" />
        </mxCell>
        <mxCell id="S8yp5X4-lJhxRksTFqpk-17" value="&lt;span style=&quot;background-color: rgb(255, 255, 0);&quot;&gt;Hunter Hassebroek&lt;/span&gt;" style="text;html=1;strokeColor=none;fillColor=none;align=left;verticalAlign=middle;whiteSpace=wrap;rounded=0;dashed=1;" parent="9j5Bc3N9rgv02oG_bQQu-47" vertex="1">
          <mxGeometry x="-20" y="170" width="120" height="20" as="geometry" />
        </mxCell>
        <mxCell id="hdncduLaqTcvyAQwggt0-4" value="&lt;div&gt;DI&lt;/div&gt;&lt;span style=&quot;background-color: rgb(255 , 255 , 51)&quot;&gt;RXY&lt;/span&gt;" style="rounded=0;whiteSpace=wrap;html=1;" vertex="1" parent="9j5Bc3N9rgv02oG_bQQu-47">
          <mxGeometry x="-30" y="50" width="80" height="40" as="geometry" />
        </mxCell>
        <mxCell id="hdncduLaqTcvyAQwggt0-3" value="&lt;div&gt;DI&lt;/div&gt;&lt;span style=&quot;background-color: rgb(255 , 255 , 51)&quot;&gt;RXY&lt;/span&gt;" style="rounded=0;whiteSpace=wrap;html=1;" vertex="1" parent="9j5Bc3N9rgv02oG_bQQu-47">
          <mxGeometry x="-30" y="90" width="80" height="40" as="geometry" />
        </mxCell>
        <mxCell id="9j5Bc3N9rgv02oG_bQQu-26" style="edgeStyle=orthogonalEdgeStyle;rounded=0;sketch=0;orthogonalLoop=1;jettySize=auto;html=1;entryX=0;entryY=0.5;entryDx=0;entryDy=0;startArrow=none;startFill=0;strokeWidth=1;" parent="1" source="9j5Bc3N9rgv02oG_bQQu-24" target="9j5Bc3N9rgv02oG_bQQu-29" edge="1">
          <mxGeometry x="30" y="40" as="geometry" />
        </mxCell>
        <mxCell id="_skWGeGQ9FX85H6YMqPT-2" value="OLED&lt;div&gt;Display&lt;/div&gt;" style="rounded=0;whiteSpace=wrap;html=1;" parent="1" vertex="1">
          <mxGeometry x="292.5" y="875" width="120" height="45" as="geometry" />
        </mxCell>
        <mxCell id="JOMnKlJys3NHe0t_5HwK-2" value="&lt;div style=&quot;font-size: 8px&quot;&gt;digital - parallel&lt;/div&gt;&lt;div style=&quot;font-size: 8px&quot;&gt;(4 pin)&lt;br&gt;&lt;/div&gt;" style="text;html=1;strokeColor=none;fillColor=none;align=center;verticalAlign=middle;whiteSpace=wrap;rounded=0;fontSize=8;rotation=0;" parent="1" vertex="1">
          <mxGeometry x="130" y="620" width="60" height="20" as="geometry" />
        </mxCell>
        <mxCell id="J8ns3n-xOa6iXa_PQh_Z-4" style="edgeStyle=orthogonalEdgeStyle;rounded=0;orthogonalLoop=1;jettySize=auto;html=1;exitX=0.5;exitY=1;exitDx=0;exitDy=0;entryX=0.5;entryY=0;entryDx=0;entryDy=0;" parent="1" source="9j5Bc3N9rgv02oG_bQQu-36" edge="1">
          <mxGeometry relative="1" as="geometry">
            <mxPoint x="352.5" y="870" as="targetPoint" />
          </mxGeometry>
        </mxCell>
        <mxCell id="J8ns3n-xOa6iXa_PQh_Z-11" value="&lt;p style=&quot;line-height: 120%&quot;&gt;&lt;span style=&quot;background-color: rgb(255 , 255 , 51)&quot;&gt;Manufacturer &lt;br&gt;Part #&lt;/span&gt;&lt;br&gt;3.3V 1.5A AC-DC Wall Power Supply&lt;br&gt;&lt;/p&gt;" style="rounded=0;whiteSpace=wrap;html=1;" parent="1" vertex="1">
          <mxGeometry x="0.5" y="370" width="120" height="60" as="geometry" />
        </mxCell>
        <mxCell id="J8ns3n-xOa6iXa_PQh_Z-14" value="&lt;span style=&quot;background-color: rgb(255 , 255 , 102)&quot;&gt;Manufacturer&lt;/span&gt;&lt;div&gt;&lt;span style=&quot;background-color: rgb(255 , 255 , 102)&quot;&gt;Part #&lt;/span&gt;&lt;/div&gt;&lt;div&gt;12V 1A AC-DC Wall Power Supply&lt;/div&gt;" style="rounded=0;whiteSpace=wrap;html=1;" parent="1" vertex="1">
          <mxGeometry x="0.5" y="850" width="120" height="60" as="geometry" />
        </mxCell>
        <mxCell id="aC57QmPyYTqG6Asludqg-2" value="&lt;div style=&quot;font-size: 8px;&quot;&gt;digital - serial&lt;br style=&quot;font-size: 8px;&quot;&gt;(UART, 2 pins)&lt;/div&gt;" style="edgeStyle=orthogonalEdgeStyle;rounded=0;orthogonalLoop=1;jettySize=auto;html=1;fontSize=8;startArrow=classic;startFill=1;" parent="1" source="9j5Bc3N9rgv02oG_bQQu-41" target="9j5Bc3N9rgv02oG_bQQu-40" edge="1">
          <mxGeometry x="-0.0013" y="-35" relative="1" as="geometry">
            <mxPoint x="70" as="offset" />
          </mxGeometry>
        </mxCell>
        <mxCell id="aC57QmPyYTqG6Asludqg-6" style="edgeStyle=orthogonalEdgeStyle;rounded=0;orthogonalLoop=1;jettySize=auto;html=1;startArrow=classic;startFill=1;fontSize=8;entryX=0.615;entryY=0.994;entryDx=0;entryDy=0;entryPerimeter=0;endArrow=none;endFill=0;dashed=1;" parent="1" source="9j5Bc3N9rgv02oG_bQQu-49" target="9j5Bc3N9rgv02oG_bQQu-1" edge="1">
          <mxGeometry relative="1" as="geometry">
            <mxPoint x="470" y="290" as="targetPoint" />
          </mxGeometry>
        </mxCell>
        <mxCell id="aC57QmPyYTqG6Asludqg-7" style="edgeStyle=orthogonalEdgeStyle;rounded=0;orthogonalLoop=1;jettySize=auto;html=1;entryX=0.385;entryY=0.912;entryDx=0;entryDy=0;entryPerimeter=0;startArrow=none;startFill=0;fontSize=8;dashed=1;" parent="1" source="9j5Bc3N9rgv02oG_bQQu-42" target="9j5Bc3N9rgv02oG_bQQu-1" edge="1">
          <mxGeometry relative="1" as="geometry" />
        </mxCell>
        <mxCell id="aC57QmPyYTqG6Asludqg-8" value="&lt;div style=&quot;font-size: 16px&quot;&gt;&lt;b style=&quot;font-size: 16px&quot;&gt;Block Diagram -- Team 310&lt;/b&gt;&lt;/div&gt;&lt;div style=&quot;font-size: 16px&quot;&gt;Hunter Hassebroek HMI System&lt;/div&gt;" style="text;html=1;strokeColor=none;fillColor=none;align=center;verticalAlign=middle;whiteSpace=wrap;rounded=0;fontSize=16;" parent="1" vertex="1">
          <mxGeometry x="20" y="20" width="660" height="60" as="geometry" />
        </mxCell>
        <mxCell id="aC57QmPyYTqG6Asludqg-13" style="edgeStyle=orthogonalEdgeStyle;rounded=0;orthogonalLoop=1;jettySize=auto;html=1;entryX=1;entryY=0.5;entryDx=0;entryDy=0;startArrow=none;startFill=0;endArrow=classic;fontSize=11;strokeWidth=1;sketch=0;" parent="1" source="aC57QmPyYTqG6Asludqg-10" target="aC57QmPyYTqG6Asludqg-1" edge="1">
          <mxGeometry relative="1" as="geometry" />
        </mxCell>
        <mxCell id="aC57QmPyYTqG6Asludqg-10" value="Microchip Snap Programmer" style="rounded=0;whiteSpace=wrap;html=1;fontSize=11;" parent="1" vertex="1">
          <mxGeometry x="540" y="240" width="120" height="60" as="geometry" />
        </mxCell>
        <mxCell id="qvk3YT8bBgQgHgqkpW-t-2" value="&lt;div style=&quot;font-size: 8px&quot;&gt;digital - parallel&lt;br&gt;&lt;/div&gt;&lt;div style=&quot;font-size: 8px&quot;&gt;(3 pins)&lt;/div&gt;" style="text;html=1;strokeColor=none;fillColor=none;align=center;verticalAlign=middle;whiteSpace=wrap;rounded=0;fontSize=8;rotation=0;" parent="1" vertex="1">
          <mxGeometry x="520" y="460" width="60" height="20" as="geometry" />
        </mxCell>
        <mxCell id="qvk3YT8bBgQgHgqkpW-t-4" value="&lt;div style=&quot;font-size: 8px&quot;&gt;Wireless (WiFi)&lt;/div&gt;" style="text;html=1;strokeColor=none;fillColor=none;align=center;verticalAlign=middle;whiteSpace=wrap;rounded=0;fontSize=8;rotation=0;" parent="1" vertex="1">
          <mxGeometry x="229" y="290" width="60" height="20" as="geometry" />
        </mxCell>
        <mxCell id="Jm0UklxG5w7mDhQz4Tn1-1" value="&lt;div style=&quot;font-size: 8px&quot;&gt;Wireless (WiFi)&lt;/div&gt;" style="text;html=1;strokeColor=none;fillColor=none;align=center;verticalAlign=middle;whiteSpace=wrap;rounded=0;fontSize=8;rotation=0;" parent="1" vertex="1">
          <mxGeometry x="350" y="290" width="60" height="20" as="geometry" />
        </mxCell>
        <mxCell id="S8yp5X4-lJhxRksTFqpk-7" value="&lt;span style=&quot;background-color: rgb(255, 255, 0);&quot;&gt;Hunter Hassebroek&lt;/span&gt;" style="text;html=1;strokeColor=none;fillColor=none;align=left;verticalAlign=middle;whiteSpace=wrap;rounded=0;dashed=1;" parent="1" vertex="1">
          <mxGeometry x="530" y="1002.5" width="120" height="20" as="geometry" />
        </mxCell>
        <mxCell id="S8yp5X4-lJhxRksTFqpk-9" value="&lt;span style=&quot;background-color: rgb(255, 255, 0);&quot;&gt;Hunter Hassebroek&lt;/span&gt;" style="text;html=1;strokeColor=none;fillColor=none;align=left;verticalAlign=middle;whiteSpace=wrap;rounded=0;dashed=1;" parent="1" vertex="1">
          <mxGeometry x="10" y="820" width="120" height="20" as="geometry" />
        </mxCell>
        <mxCell id="9j5Bc3N9rgv02oG_bQQu-5" value="ESP32 Wifi Module" style="rounded=0;whiteSpace=wrap;html=1;strokeWidth=2;fillColor=#E6E6E6;" parent="1" vertex="1">
          <mxGeometry x="229" y="400" width="240" height="100" as="geometry" />
        </mxCell>
        <mxCell id="9j5Bc3N9rgv02oG_bQQu-41" value="&lt;div&gt;SERIAL&lt;/div&gt;RX,TX" style="rounded=0;whiteSpace=wrap;html=1;" parent="1" vertex="1">
          <mxGeometry x="318.6788990825688" y="470" width="52.75229357798166" height="30" as="geometry" />
        </mxCell>
        <mxCell id="9j5Bc3N9rgv02oG_bQQu-42" value="Upstream&lt;div&gt;module&lt;/div&gt;" style="rounded=0;whiteSpace=wrap;html=1;" parent="1" vertex="1">
          <mxGeometry x="229" y="400" width="120" height="30" as="geometry" />
        </mxCell>
        <mxCell id="9j5Bc3N9rgv02oG_bQQu-49" value="Downstream&lt;div&gt;module&lt;/div&gt;" style="rounded=0;whiteSpace=wrap;html=1;" parent="1" vertex="1">
          <mxGeometry x="349" y="400" width="120" height="30" as="geometry" />
        </mxCell>
        <mxCell id="S8yp5X4-lJhxRksTFqpk-14" value="" style="rounded=1;whiteSpace=wrap;html=1;fillColor=none;dashed=1;" parent="1" vertex="1">
          <mxGeometry x="210" y="390" width="310" height="380" as="geometry" />
        </mxCell>
        <mxCell id="hdncduLaqTcvyAQwggt0-6" value="" style="edgeStyle=orthogonalEdgeStyle;rounded=0;orthogonalLoop=1;jettySize=auto;html=1;" edge="1" parent="1" source="hdncduLaqTcvyAQwggt0-2" target="hdncduLaqTcvyAQwggt0-3">
          <mxGeometry relative="1" as="geometry" />
        </mxCell>
        <mxCell id="hdncduLaqTcvyAQwggt0-2" value="mushroom button&lt;div&gt;(for turning on and off)&lt;/div&gt;" style="rounded=0;whiteSpace=wrap;html=1;" vertex="1" parent="1">
          <mxGeometry x="10" y="690" width="120" height="60" as="geometry" />
        </mxCell>
        <mxCell id="9j5Bc3N9rgv02oG_bQQu-30" value="&lt;div&gt;ADC&lt;/div&gt;&lt;div&gt;&lt;span style=&quot;background-color: rgb(255 , 255 , 51)&quot;&gt;RXY&lt;/span&gt;&lt;/div&gt;" style="rounded=0;whiteSpace=wrap;html=1;" parent="1" vertex="1">
          <mxGeometry x="210" y="700" width="80" height="40" as="geometry" />
        </mxCell>
        <mxCell id="hdncduLaqTcvyAQwggt0-11" style="edgeStyle=orthogonalEdgeStyle;rounded=0;orthogonalLoop=1;jettySize=auto;html=1;entryX=0;entryY=0.5;entryDx=0;entryDy=0;" edge="1" parent="1" source="hdncduLaqTcvyAQwggt0-7" target="hdncduLaqTcvyAQwggt0-4">
          <mxGeometry relative="1" as="geometry" />
        </mxCell>
        <mxCell id="hdncduLaqTcvyAQwggt0-7" value="Menu&lt;div&gt;buttons for going through the menus&lt;/div&gt;" style="rounded=0;whiteSpace=wrap;html=1;" vertex="1" parent="1">
          <mxGeometry x="10" y="610" width="120" height="60" as="geometry" />
        </mxCell>
      </root>
    </mxGraphModel>
  </diagram>
</mxfile>
